<?xml version="1.0" encoding="utf-8"?>
<!-- Generator: Adobe Illustrator 21.0.0, SVG Export Plug-In . SVG Version: 6.00 Build 0)  -->
<svg version="1.1" id="Layer_1" xmlns="http://www.w3.org/2000/svg" x="0px" y="0px"
     width="18px" height="18px" viewBox="0 0 18 18" style="enable-background:new 0 0 18 18;" xml:space="preserve">
<style type="text/css">
	.st0{fill:#929292;}
</style>
  <g>
	<path class="st0" d="M14,6c-1.1,0-2,0.9-2,2H0v2h12c0,1.1,0.9,2,2,2s2-0.9,2-2h2V8h-2C16,6.9,15.1,6,14,6z"/>
    <path class="st0" d="M4,12c-1.1,0-2,0.9-2,2H0v2h2c0,1.1,0.9,2,2,2s2-0.9,2-2h12v-2H6C6,12.9,5.1,12,4,12z"/>
    <path class="st0" d="M6,2c0-1.1-0.9-2-2-2S2,0.9,2,2H0v2h2c0,1.1,0.9,2,2,2s2-0.9,2-2h12V2H6z"/>
</g>
</svg>
